<svg xmlns="http://www.w3.org/2000/svg" xmlns:xlink="http://www.w3.org/1999/xlink" width="592" height="112">
  <style>
    @media (prefers-color-scheme:dark) {
      svg {
        fill: white;
      }
    }
  </style>
  <defs>
    <path id="e" d="M80 80H0V0h80v48H24V32h40V16H16v48h64z"/>
    <path id="s" d="M0 0v48h64v16H0v16h80V32H16V16h64V0z"/>
  </defs>
  <use xlink:href="#e" width="100%" height="100%" transform="translate(320 16)"/>
  <path d="M192 27.314L123.314 96H112V84.686L180.686 16H192zM192 96h-11.314l-23.029-23.029 11.314-11.314L192 84.685zm-80-80h11.314l23.029 23.028-11.314 11.314L112 27.314zm-16 96h112V0H96z"/>
  <path d="M224 96V16h80v16h-64v48h64v16z"/>
  <use xlink:href="#e" width="100%" height="100%" transform="translate(0 16)"/>
  <use xlink:href="#s" width="100%" height="100%" transform="translate(416 16)"/>
  <use xlink:href="#s" width="100%" height="100%" transform="translate(512 16)"/>
</svg>
